<svg width="16" height="16" viewBox="0 0 16 16" fill="none" xmlns="http://www.w3.org/2000/svg">
<path d="M13.6667 7.16663H2.33337V11.3333C2.33337 13.1742 3.82576 14.6666 5.66671 14.6666H10.3334C12.1743 14.6666 13.6667 13.1742 13.6667 11.3333V7.16663Z" fill="url(#paint0_linear_246_11219)"/>
<path d="M5.66667 10.3333C5.49333 10.3333 5.32 10.26 5.19333 10.14C5.07333 10.0133 5 9.84 5 9.66666C5 9.49333 5.07333 9.32 5.19333 9.19334C5.38 9.00667 5.67333 8.94665 5.92 9.05332C6.00667 9.08665 6.08 9.13334 6.14 9.19334C6.26 9.32 6.33333 9.49333 6.33333 9.66666C6.33333 9.84 6.26 10.0133 6.14 10.14C6.01333 10.26 5.84 10.3333 5.66667 10.3333Z" fill="white"/>
<path d="M8.00004 10.3333C7.82671 10.3333 7.65337 10.26 7.52671 10.14C7.40671 10.0133 7.33337 9.84 7.33337 9.66666C7.33337 9.49333 7.40671 9.32 7.52671 9.19334C7.58671 9.13334 7.66004 9.08665 7.74671 9.05332C7.99337 8.94665 8.28671 9.00667 8.47337 9.19334C8.59337 9.32 8.66671 9.49333 8.66671 9.66666C8.66671 9.84 8.59337 10.0133 8.47337 10.14C8.44004 10.1667 8.40671 10.1933 8.37337 10.22C8.33337 10.2467 8.29337 10.2667 8.25337 10.28C8.21337 10.3 8.17337 10.3133 8.13337 10.32C8.08671 10.3267 8.04671 10.3333 8.00004 10.3333Z" fill="white"/>
<path d="M10.3333 10.3333C10.16 10.3333 9.98663 10.26 9.85996 10.14C9.73996 10.0133 9.66663 9.84001 9.66663 9.66667C9.66663 9.49334 9.73996 9.32001 9.85996 9.19335C9.92663 9.13335 9.99329 9.08667 10.08 9.05333C10.2 9 10.3333 8.98667 10.4666 9.01333C10.5066 9.02 10.5466 9.03333 10.5866 9.05333C10.6266 9.06667 10.6666 9.08668 10.7066 9.11335C10.74 9.14002 10.7733 9.16668 10.8066 9.19335C10.9266 9.32001 11 9.49334 11 9.66667C11 9.84001 10.9266 10.0133 10.8066 10.14C10.7733 10.1667 10.74 10.1933 10.7066 10.22C10.6666 10.2467 10.6266 10.2667 10.5866 10.28C10.5466 10.3 10.5066 10.3133 10.4666 10.32C10.42 10.3267 10.3733 10.3333 10.3333 10.3333Z" fill="white"/>
<path d="M5.66667 12.6667C5.58 12.6667 5.49333 12.6467 5.41333 12.6134C5.32667 12.5801 5.26 12.5334 5.19333 12.4734C5.07333 12.3467 5 12.1734 5 12C5 11.8267 5.07333 11.6534 5.19333 11.5267C5.26 11.4667 5.32667 11.42 5.41333 11.3867C5.53333 11.3334 5.66667 11.32 5.8 11.3467C5.84 11.3534 5.88 11.3667 5.92 11.3867C5.96 11.4 6 11.4201 6.04 11.4467C6.07333 11.4734 6.10667 11.5001 6.14 11.5267C6.26 11.6534 6.33333 11.8267 6.33333 12C6.33333 12.1734 6.26 12.3467 6.14 12.4734C6.10667 12.5 6.07333 12.5334 6.04 12.5534C6 12.58 5.96 12.6001 5.92 12.6134C5.88 12.6334 5.84 12.6467 5.8 12.6534C5.75333 12.6601 5.71333 12.6667 5.66667 12.6667Z" fill="white"/>
<path d="M8.00004 12.6667C7.82671 12.6667 7.65337 12.5933 7.52671 12.4733C7.40671 12.3467 7.33337 12.1733 7.33337 12C7.33337 11.8267 7.40671 11.6533 7.52671 11.5267C7.77337 11.28 8.22671 11.28 8.47337 11.5267C8.59337 11.6533 8.66671 11.8267 8.66671 12C8.66671 12.1733 8.59337 12.3467 8.47337 12.4733C8.34671 12.5933 8.17337 12.6667 8.00004 12.6667Z" fill="white"/>
<path d="M10.3333 12.6667C10.16 12.6667 9.98663 12.5933 9.85996 12.4733C9.73996 12.3467 9.66663 12.1733 9.66663 12C9.66663 11.8267 9.73996 11.6533 9.85996 11.5267C10.1066 11.28 10.56 11.28 10.8066 11.5267C10.9266 11.6533 11 11.8267 11 12C11 12.1733 10.9266 12.3467 10.8066 12.4733C10.68 12.5933 10.5066 12.6667 10.3333 12.6667Z" fill="white"/>
<path d="M5.66671 2.66663C3.82576 2.66663 2.33337 4.15901 2.33337 5.99996V6.16663H13.6667V5.99996C13.6667 4.15901 12.1743 2.66663 10.3334 2.66663L5.66671 2.66663Z" fill="url(#paint1_linear_246_11219)"/>
<path fill-rule="evenodd" clip-rule="evenodd" d="M6 1.5C6.27614 1.5 6.5 1.72386 6.5 2V3.33333C6.5 3.60948 6.27614 3.83333 6 3.83333C5.72386 3.83333 5.5 3.60948 5.5 3.33333V2C5.5 1.72386 5.72386 1.5 6 1.5Z" fill="white"/>
<path fill-rule="evenodd" clip-rule="evenodd" d="M10 1.5C10.2761 1.5 10.5 1.72386 10.5 2V3.33333C10.5 3.60948 10.2761 3.83333 10 3.83333C9.72386 3.83333 9.5 3.60948 9.5 3.33333V2C9.5 1.72386 9.72386 1.5 10 1.5Z" fill="white"/>
<defs>
<linearGradient id="paint0_linear_246_11219" x1="6.38478" y1="15.6314" x2="19.8386" y2="8.64242" gradientUnits="userSpaceOnUse">
<stop stop-color="#E82320"/>
<stop offset="1" stop-color="#FA504D"/>
</linearGradient>
<linearGradient id="paint1_linear_246_11219" x1="6.38478" y1="6.61683" x2="14.0147" y2="-1.87652" gradientUnits="userSpaceOnUse">
<stop stop-color="#E82320"/>
<stop offset="1" stop-color="#FA504D"/>
</linearGradient>
</defs>
</svg>
