<svg width="16" height="16" viewBox="0 0 16 16" fill="none" xmlns="http://www.w3.org/2000/svg">
<path d="M9.99996 1.33337C10.7363 1.33337 11.3333 1.93033 11.3333 2.66671H12.6666C13.0348 2.66671 13.3333 2.96518 13.3333 3.33337C13.3333 3.70156 13.0348 4.00004 12.6666 4.00004V14.6667H9.33329V12.6667C9.33329 11.9303 8.73634 11.3334 7.99996 11.3334C7.26358 11.3334 6.66663 11.9303 6.66663 12.6667V14.6667H3.33329V4.00004C2.9651 4.00004 2.66663 3.70156 2.66663 3.33337C2.66663 2.96518 2.9651 2.66671 3.33329 2.66671H4.66663C4.66663 1.93033 5.26358 1.33337 5.99996 1.33337H9.99996Z" fill="url(#paint0_linear_246_11226)"/>
<path d="M5.33337 4.99996C5.33337 4.81586 5.48261 4.66663 5.66671 4.66663H6.33337C6.51747 4.66663 6.66671 4.81586 6.66671 4.99996V5.66663C6.66671 5.85072 6.51747 5.99996 6.33337 5.99996H5.66671C5.48261 5.99996 5.33337 5.85072 5.33337 5.66663V4.99996Z" fill="url(#paint1_linear_246_11226)"/>
<path d="M5.33337 6.99996C5.33337 6.81586 5.48261 6.66663 5.66671 6.66663H6.33337C6.51747 6.66663 6.66671 6.81586 6.66671 6.99996V7.66663C6.66671 7.85072 6.51747 7.99996 6.33337 7.99996H5.66671C5.48261 7.99996 5.33337 7.85072 5.33337 7.66663V6.99996Z" fill="url(#paint2_linear_246_11226)"/>
<path d="M5.33337 8.99996C5.33337 8.81586 5.48261 8.66663 5.66671 8.66663H6.33337C6.51747 8.66663 6.66671 8.81586 6.66671 8.99996V9.66663C6.66671 9.85072 6.51747 9.99996 6.33337 9.99996H5.66671C5.48261 9.99996 5.33337 9.85072 5.33337 9.66663V8.99996Z" fill="url(#paint3_linear_246_11226)"/>
<path d="M7.33337 4.99996C7.33337 4.81586 7.48261 4.66663 7.66671 4.66663H8.33337C8.51747 4.66663 8.66671 4.81586 8.66671 4.99996V5.66663C8.66671 5.85072 8.51747 5.99996 8.33337 5.99996H7.66671C7.48261 5.99996 7.33337 5.85072 7.33337 5.66663V4.99996Z" fill="url(#paint4_linear_246_11226)"/>
<path d="M7.33337 6.99996C7.33337 6.81586 7.48261 6.66663 7.66671 6.66663H8.33337C8.51747 6.66663 8.66671 6.81586 8.66671 6.99996V7.66663C8.66671 7.85072 8.51747 7.99996 8.33337 7.99996H7.66671C7.48261 7.99996 7.33337 7.85072 7.33337 7.66663V6.99996Z" fill="url(#paint5_linear_246_11226)"/>
<path d="M7.33337 8.99996C7.33337 8.81586 7.48261 8.66663 7.66671 8.66663H8.33337C8.51747 8.66663 8.66671 8.81586 8.66671 8.99996V9.66663C8.66671 9.85072 8.51747 9.99996 8.33337 9.99996H7.66671C7.48261 9.99996 7.33337 9.85072 7.33337 9.66663V8.99996Z" fill="url(#paint6_linear_246_11226)"/>
<path d="M9.33337 4.99996C9.33337 4.81586 9.48261 4.66663 9.66671 4.66663H10.3334C10.5175 4.66663 10.6667 4.81586 10.6667 4.99996V5.66663C10.6667 5.85072 10.5175 5.99996 10.3334 5.99996H9.66671C9.48261 5.99996 9.33337 5.85072 9.33337 5.66663V4.99996Z" fill="url(#paint7_linear_246_11226)"/>
<path d="M9.33337 6.99996C9.33337 6.81586 9.48261 6.66663 9.66671 6.66663H10.3334C10.5175 6.66663 10.6667 6.81586 10.6667 6.99996V7.66663C10.6667 7.85072 10.5175 7.99996 10.3334 7.99996H9.66671C9.48261 7.99996 9.33337 7.85072 9.33337 7.66663V6.99996Z" fill="url(#paint8_linear_246_11226)"/>
<path d="M9.33337 8.99996C9.33337 8.81586 9.48261 8.66663 9.66671 8.66663H10.3334C10.5175 8.66663 10.6667 8.81586 10.6667 8.99996V9.66663C10.6667 9.85072 10.5175 9.99996 10.3334 9.99996H9.66671C9.48261 9.99996 9.33337 9.85072 9.33337 9.66663V8.99996Z" fill="url(#paint9_linear_246_11226)"/>
<defs>
<linearGradient id="paint0_linear_246_11226" x1="6.47971" y1="16.3818" x2="21.4285" y2="12.2706" gradientUnits="userSpaceOnUse">
<stop stop-color="#E82320"/>
<stop offset="1" stop-color="#FA504D"/>
</linearGradient>
<linearGradient id="paint1_linear_246_11226" x1="6.24072" y1="4.73981" x2="5.68226" y2="8.81595" gradientUnits="userSpaceOnUse">
<stop stop-color="#F9F218"/>
<stop offset="1" stop-color="#E2A246"/>
</linearGradient>
<linearGradient id="paint2_linear_246_11226" x1="6.24072" y1="6.73981" x2="5.68226" y2="10.8159" gradientUnits="userSpaceOnUse">
<stop stop-color="#F9F218"/>
<stop offset="1" stop-color="#E2A246"/>
</linearGradient>
<linearGradient id="paint3_linear_246_11226" x1="6.24072" y1="8.73981" x2="5.68226" y2="12.8159" gradientUnits="userSpaceOnUse">
<stop stop-color="#F9F218"/>
<stop offset="1" stop-color="#E2A246"/>
</linearGradient>
<linearGradient id="paint4_linear_246_11226" x1="8.24072" y1="4.73981" x2="7.68226" y2="8.81595" gradientUnits="userSpaceOnUse">
<stop stop-color="#F9F218"/>
<stop offset="1" stop-color="#E2A246"/>
</linearGradient>
<linearGradient id="paint5_linear_246_11226" x1="8.24072" y1="6.73981" x2="7.68226" y2="10.8159" gradientUnits="userSpaceOnUse">
<stop stop-color="#F9F218"/>
<stop offset="1" stop-color="#E2A246"/>
</linearGradient>
<linearGradient id="paint6_linear_246_11226" x1="8.24072" y1="8.73981" x2="7.68226" y2="12.8159" gradientUnits="userSpaceOnUse">
<stop stop-color="#F9F218"/>
<stop offset="1" stop-color="#E2A246"/>
</linearGradient>
<linearGradient id="paint7_linear_246_11226" x1="10.2407" y1="4.73981" x2="9.68226" y2="8.81595" gradientUnits="userSpaceOnUse">
<stop stop-color="#F9F218"/>
<stop offset="1" stop-color="#E2A246"/>
</linearGradient>
<linearGradient id="paint8_linear_246_11226" x1="10.2407" y1="6.73981" x2="9.68226" y2="10.8159" gradientUnits="userSpaceOnUse">
<stop stop-color="#F9F218"/>
<stop offset="1" stop-color="#E2A246"/>
</linearGradient>
<linearGradient id="paint9_linear_246_11226" x1="10.2407" y1="8.73981" x2="9.68226" y2="12.8159" gradientUnits="userSpaceOnUse">
<stop stop-color="#F9F218"/>
<stop offset="1" stop-color="#E2A246"/>
</linearGradient>
</defs>
</svg>
