<svg width="16" height="16" viewBox="0 0 16 16" fill="none" xmlns="http://www.w3.org/2000/svg">
<path d="M14.6667 8.00004C14.6667 11.6819 11.6819 14.6667 8.00004 14.6667C4.31814 14.6667 1.33337 11.6819 1.33337 8.00004C1.33337 4.31814 4.31814 1.33337 8.00004 1.33337C11.6819 1.33337 14.6667 4.31814 14.6667 8.00004Z" fill="url(#paint0_linear_246_11240)"/>
<path d="M8.5 4.66663C8.5 4.39048 8.27614 4.16663 8 4.16663C7.72386 4.16663 7.5 4.39048 7.5 4.66663V7.99996C7.5 8.06775 7.51349 8.1324 7.53794 8.19135C7.56234 8.25032 7.59851 8.30557 7.64645 8.35351L10.3131 11.0202C10.5084 11.2154 10.825 11.2154 11.0202 11.0202C11.2155 10.8249 11.2155 10.5083 11.0202 10.3131L8.5 7.79285L8.5 4.66663Z" fill="white"/>
<defs>
<linearGradient id="paint0_linear_246_11240" x1="6.09973" y1="16.3818" x2="24.0748" y2="10.2025" gradientUnits="userSpaceOnUse">
<stop stop-color="#E82320"/>
<stop offset="1" stop-color="#FA504D"/>
</linearGradient>
</defs>
</svg>
