<svg width="16" height="16" viewBox="0 0 16 16" fill="none" xmlns="http://www.w3.org/2000/svg">
<path d="M14.6667 4.66671C14.6667 2.82576 13.1743 1.33337 11.3334 1.33337H4.66671C2.82576 1.33337 1.33337 2.82576 1.33337 4.66671V11.3334C1.33337 13.1743 2.82576 14.6667 4.66671 14.6667H11.3334C13.1743 14.6667 14.6667 13.1743 14.6667 11.3334V4.66671Z" fill="url(#paint0_linear_246_11246)"/>
<path d="M7.44533 3.83202C7.70921 3.4362 8.29085 3.4362 8.55473 3.83202L9.97572 5.96351C10.2711 6.40654 9.95348 6.99997 9.42102 6.99997H6.57904C6.04658 6.99997 5.72898 6.40654 6.02434 5.96351L7.44533 3.83202Z" fill="white"/>
<path d="M12.6667 9.33325C12.6667 8.78097 12.219 8.33325 11.6667 8.33325H9.66675C9.11446 8.33325 8.66675 8.78097 8.66675 9.33325V11.3333C8.66675 11.8855 9.11446 12.3333 9.66675 12.3333H11.6667C12.219 12.3333 12.6667 11.8855 12.6667 11.3333V9.33325Z" fill="white"/>
<path d="M3.33337 10.3333C3.33337 11.4378 4.2288 12.3333 5.33337 12.3333C6.43794 12.3333 7.33337 11.4378 7.33337 10.3333C7.33337 9.22868 6.43794 8.33325 5.33337 8.33325C4.2288 8.33325 3.33337 9.22868 3.33337 10.3333Z" fill="white"/>
<defs>
<linearGradient id="paint0_linear_246_11246" x1="6.09973" y1="16.3818" x2="24.0748" y2="10.2025" gradientUnits="userSpaceOnUse">
<stop stop-color="#E82320"/>
<stop offset="1" stop-color="#FA504D"/>
</linearGradient>
</defs>
</svg>
