<svg width="16" height="16" viewBox="0 0 16 16" fill="none" xmlns="http://www.w3.org/2000/svg">
<g clip-path="url(#clip0_246_11222)">
<path d="M2.09517 10.6996C1.9496 10.9762 2.17634 11.1716 2.48773 11.1984L4.02792 11.3313C4.33434 11.3549 4.60775 11.6283 4.63132 11.9347L4.76399 13.4729C4.79096 13.7856 4.9856 14.0096 5.26772 13.8722L6.1021 13.4526C6.30481 13.3536 6.47451 12.8539 6.47451 12.8539L6.95063 11.1804C6.95063 11.1804 7.03548 10.8127 7.14391 10.7043L8.48741 9.36081C8.6854 9.16282 8.92582 9.21468 9.03424 9.47395L10.3495 12.7879C10.3495 12.7879 10.5757 13.8816 10.9717 13.4856L11.5798 12.8775C11.8957 12.5616 12.0229 11.963 11.8532 11.5481L10.8256 7.30549C10.7832 7.19707 10.8161 7.03207 10.901 6.94722L12.3152 5.53301C12.7583 5.08989 12.9563 4.24136 12.7631 3.64268C12.6923 3.43054 12.5273 3.26555 12.3152 3.19484C11.7165 3.00157 10.8633 3.20427 10.4202 3.64739L9.00596 5.0616C8.9211 5.14646 8.75611 5.17945 8.64769 5.13703L4.40976 4.11408C3.99964 3.93966 3.40096 4.06694 3.08512 4.38278L2.477 4.99089C2.08102 5.38687 3.17468 5.61315 3.17468 5.61315L6.48866 6.92836C6.74793 7.02736 6.79978 7.2772 6.60179 7.47519L5.25829 8.8187C5.14987 8.92712 4.78689 9.01669 4.78689 9.01669L3.1134 9.4928C2.88713 9.4928 2.61842 9.6578 2.51472 9.86521L2.09517 10.6996Z" fill="url(#paint0_linear_246_11222)"/>
</g>
<defs>
<linearGradient id="paint0_linear_246_11222" x1="1.013" y1="12.5282" x2="16.3399" y2="20.4626" gradientUnits="userSpaceOnUse">
<stop stop-color="#E82320"/>
<stop offset="1" stop-color="#FA504D"/>
</linearGradient>
<clipPath id="clip0_246_11222">
<rect width="16" height="16" fill="white"/>
</clipPath>
</defs>
</svg>
