<svg width="16" height="16" viewBox="0 0 16 16" fill="none" xmlns="http://www.w3.org/2000/svg">
<path d="M11.7466 7.16673C11.46 7.16673 11.2333 6.9334 11.2333 6.6534C11.2333 6.40673 10.9866 5.8934 10.5733 5.44673C10.1666 5.0134 9.71998 4.76006 9.34665 4.76006C9.05998 4.76006 8.83331 4.52673 8.83331 4.24673C8.83331 3.96673 9.06665 3.7334 9.34665 3.7334C10.0133 3.7334 10.7133 4.0934 11.3266 4.74007C11.9 5.34673 12.2666 6.10007 12.2666 6.64673C12.2666 6.9334 12.0333 7.16673 11.7466 7.16673Z" fill="url(#paint0_linear_246_11153)"/>
<path d="M14.1534 7.16658C13.8667 7.16658 13.64 6.93325 13.64 6.65325C13.64 4.28658 11.7134 2.36659 9.35336 2.36659C9.06669 2.36659 8.84003 2.13325 8.84003 1.85325C8.84003 1.57325 9.06669 1.33325 9.34669 1.33325C12.28 1.33325 14.6667 3.71992 14.6667 6.65325C14.6667 6.93325 14.4334 7.16658 14.1534 7.16658Z" fill="url(#paint1_linear_246_11153)"/>
<path d="M14.6466 12.2199C14.6466 12.4599 14.5933 12.7066 14.48 12.9466C14.3666 13.1866 14.22 13.4133 14.0266 13.6266C13.7 13.9866 13.34 14.2466 12.9333 14.4133C12.5333 14.5799 12.1 14.6666 11.6333 14.6666C10.9533 14.6666 10.2266 14.5066 9.45998 14.1799C8.69331 13.8533 7.92665 13.4133 7.16665 12.8599C6.39998 12.2999 5.67331 11.6799 4.97998 10.9933C4.29331 10.2999 3.67331 9.57325 3.11998 8.81325C2.57331 8.05325 2.13331 7.29325 1.81331 6.53992C1.49331 5.77992 1.33331 5.05325 1.33331 4.35992C1.33331 3.90659 1.41331 3.47325 1.57331 3.07325C1.73331 2.66659 1.98665 2.29325 2.33998 1.95992C2.76665 1.53992 3.23331 1.33325 3.72665 1.33325C3.91331 1.33325 4.09998 1.37325 4.26665 1.45325C4.43998 1.53325 4.59331 1.65325 4.71331 1.82659L6.25998 4.00659C6.37998 4.17325 6.46665 4.32659 6.52665 4.47325C6.58665 4.61325 6.61998 4.75325 6.61998 4.87992C6.61998 5.03992 6.57331 5.19992 6.47998 5.35325C6.39331 5.50659 6.26665 5.66659 6.10665 5.82659L5.59998 6.35325C5.52665 6.42659 5.49331 6.51325 5.49331 6.61992C5.49331 6.67325 5.49998 6.71992 5.51331 6.77325C5.53331 6.82659 5.55331 6.86659 5.56665 6.90659C5.68665 7.12659 5.89331 7.41325 6.18665 7.75992C6.48665 8.10659 6.80665 8.45992 7.15331 8.81325C7.51331 9.16659 7.85998 9.49325 8.21331 9.79325C8.55998 10.0866 8.84665 10.2866 9.07331 10.4066C9.10665 10.4199 9.14665 10.4399 9.19331 10.4599C9.24665 10.4799 9.29998 10.4866 9.35998 10.4866C9.47331 10.4866 9.55998 10.4466 9.63331 10.3733L10.14 9.87325C10.3066 9.70659 10.4666 9.57992 10.62 9.49992C10.7733 9.40659 10.9266 9.35992 11.0933 9.35992C11.22 9.35992 11.3533 9.38659 11.5 9.44659C11.6466 9.50659 11.8 9.59325 11.9666 9.70659L14.1733 11.2733C14.3466 11.3933 14.4666 11.5333 14.54 11.6999C14.6066 11.8666 14.6466 12.0333 14.6466 12.2199Z" fill="white"/>
<defs>
<linearGradient id="paint0_linear_246_11153" x1="11.1697" y1="3.92185" x2="9.73169" y2="14.4179" gradientUnits="userSpaceOnUse">
<stop stop-color="#F9F218"/>
<stop offset="1" stop-color="#E2A246"/>
</linearGradient>
<linearGradient id="paint1_linear_246_11153" x1="12.8051" y1="1.65343" x2="10.3592" y2="19.4858" gradientUnits="userSpaceOnUse">
<stop stop-color="#F9F218"/>
<stop offset="1" stop-color="#E2A246"/>
</linearGradient>
</defs>
</svg>
