<svg width="16" height="16" viewBox="0 0 16 16" fill="none" xmlns="http://www.w3.org/2000/svg">
<path d="M7.71773 12.0435H12.3001C12.9232 12.0435 13.2955 11.3497 12.9509 10.8305L12.5968 10.2969C12.4115 10.0177 12.0986 9.84983 11.7635 9.84983H10.9904C10.6109 9.84983 10.2642 9.6351 10.0951 9.29542L9.55515 8.21055C9.38609 7.87088 9.03934 7.65614 8.65992 7.65614H7.04569C6.63622 7.65614 6.26812 7.40651 6.11664 7.02609L5.16256 4.63006C5.01108 4.24964 4.64298 4 4.23351 4H3.42549C2.73214 4 2.2492 4.68843 2.4852 5.34038L3.95657 9.40502C4.52982 10.9886 6.03357 12.0435 7.71773 12.0435Z" fill="url(#paint0_linear_246_11205)"/>
<defs>
<linearGradient id="paint0_linear_246_11205" x1="10.2291" y1="4.40218" x2="4.72698" y2="16.1157" gradientUnits="userSpaceOnUse">
<stop stop-color="#FF3733"/>
<stop offset="1" stop-color="#9A1212"/>
</linearGradient>
</defs>
</svg>
