<svg width="24" height="24" viewBox="0 0 24 24" fill="none" xmlns="http://www.w3.org/2000/svg">
<path d="M8 3.83337C9.35665 4.37025 10.863 4.39155 12.2343 3.89325L12.7588 3.70265C14.024 3.24287 15.3904 3.13508 16.7121 3.39077L19 3.83337L16.8462 7.16671L19 11.1667L16.7121 10.7241C15.3904 10.4684 14.024 10.5762 12.7588 11.036L12.2343 11.2266C10.863 11.7249 9.35665 11.7036 8 11.1667V3.83337Z" fill="url(#paint0_linear_246_10939)"/>
<path d="M6 2.5C6 2.22386 6.22386 2 6.5 2H8.5C8.77614 2 9 2.22386 9 2.5C9 2.77614 8.77614 3 8.5 3H8V20C9.10457 20 10 20.8954 10 22H5C5 20.8954 5.89543 20 7 20V3H6.5C6.22386 3 6 2.77614 6 2.5Z" fill="url(#paint1_linear_246_10939)"/>
<circle cx="12" cy="21" r="1" fill="url(#paint2_linear_246_10939)"/>
<path d="M22 18C22 20.2091 20.2091 22 18 22C15.7909 22 14 20.2091 14 18C14 15.7909 15.7909 14 18 14C20.2091 14 22 15.7909 22 18Z" fill="url(#paint3_linear_246_10939)"/>
<path d="M17.25 19.51C17.25 19.92 17.59 20.26 18 20.26C18.41 20.26 18.75 19.93 18.75 19.51V18.73H19.49C19.91 18.73 20.24 18.39 20.24 17.98C20.24 17.57 19.9 17.23 19.49 17.23H18.75V16.52C18.75 16.11 18.41 15.77 18 15.77C17.59 15.77 17.25 16.11 17.25 16.52V17.23H16.5C16.09 17.23 15.75 17.57 15.75 17.98C15.75 18.39 16.09 18.73 16.5 18.73H17.25V19.51Z" fill="url(#paint4_linear_246_10939)"/>
<defs>
<linearGradient id="paint0_linear_246_10939" x1="11.9322" y1="14.0964" x2="26.2891" y2="8.44442" gradientUnits="userSpaceOnUse">
<stop stop-color="#E82320"/>
<stop offset="1" stop-color="#FA504D"/>
</linearGradient>
<linearGradient id="paint1_linear_246_10939" x1="6.78738" y1="28.0287" x2="14.283" y2="27.4701" gradientUnits="userSpaceOnUse">
<stop stop-color="#E82320"/>
<stop offset="1" stop-color="#FA504D"/>
</linearGradient>
<linearGradient id="paint2_linear_246_10939" x1="11.715" y1="22.6029" x2="14.4838" y2="21.7774" gradientUnits="userSpaceOnUse">
<stop stop-color="#E82320"/>
<stop offset="1" stop-color="#FA504D"/>
</linearGradient>
<linearGradient id="paint3_linear_246_10939" x1="16.8598" y1="24.4115" x2="27.935" y2="21.1097" gradientUnits="userSpaceOnUse">
<stop stop-color="#E82320"/>
<stop offset="1" stop-color="#FA504D"/>
</linearGradient>
<linearGradient id="paint4_linear_246_10939" x1="19.6787" y1="15.7676" x2="17.9934" y2="20.2594" gradientUnits="userSpaceOnUse">
<stop stop-color="#F9F218"/>
<stop offset="1" stop-color="#E2A246"/>
</linearGradient>
</defs>
</svg>
