<svg width="16" height="16" viewBox="0 0 16 16" fill="none" xmlns="http://www.w3.org/2000/svg">
<path d="M3.66663 5.83325C2.93025 5.83325 2.33329 6.43021 2.33329 7.16659V7.99992C1.9651 7.99992 1.66663 8.2984 1.66663 8.66659V10.9999C1.66663 11.184 1.81586 11.3333 1.99996 11.3333C2.18405 11.3333 2.33329 11.184 2.33329 10.9999V9.83325H5.66663V10.9999C5.66663 11.184 5.81586 11.3333 5.99996 11.3333C6.18405 11.3333 6.33329 11.184 6.33329 10.9999V9.83325H9.66663V10.9999C9.66663 11.184 9.81586 11.3333 9.99996 11.3333C10.1841 11.3333 10.3333 11.184 10.3333 10.9999V9.83325H13.6666V10.9999C13.6666 11.184 13.8159 11.3333 14 11.3333C14.1841 11.3333 14.3333 11.184 14.3333 10.9999V8.66659C14.3333 8.2984 14.0348 7.99992 13.6666 7.99992V7.16659C13.6666 6.43021 13.0697 5.83325 12.3333 5.83325H11.6666C10.9302 5.83325 10.3333 6.43021 10.3333 7.16659V7.99992H9.66663V7.16659C9.66663 6.43021 9.06967 5.83325 8.33329 5.83325H7.66663C6.93025 5.83325 6.33329 6.43021 6.33329 7.16659V7.99992H5.66663V7.16659C5.66663 6.43021 5.06967 5.83325 4.33329 5.83325H3.66663Z" fill="url(#paint0_linear_246_11202)"/>
<path fill-rule="evenodd" clip-rule="evenodd" d="M3.16663 5.16663C3.16663 4.89048 3.39048 4.66663 3.66663 4.66663H4.33329C4.60944 4.66663 4.83329 4.89048 4.83329 5.16663C4.83329 5.44277 4.60944 5.66663 4.33329 5.66663H3.66663C3.39048 5.66663 3.16663 5.44277 3.16663 5.16663Z" fill="url(#paint1_linear_246_11202)"/>
<path fill-rule="evenodd" clip-rule="evenodd" d="M7.16663 5.16663C7.16663 4.89048 7.39048 4.66663 7.66663 4.66663H8.33329C8.60943 4.66663 8.83329 4.89048 8.83329 5.16663C8.83329 5.44277 8.60943 5.66663 8.33329 5.66663H7.66663C7.39048 5.66663 7.16663 5.44277 7.16663 5.16663Z" fill="url(#paint2_linear_246_11202)"/>
<path fill-rule="evenodd" clip-rule="evenodd" d="M11.1666 5.16663C11.1666 4.89048 11.3905 4.66663 11.6666 4.66663H12.3333C12.6094 4.66663 12.8333 4.89048 12.8333 5.16663C12.8333 5.44277 12.6094 5.66663 12.3333 5.66663H11.6666C11.3905 5.66663 11.1666 5.44277 11.1666 5.16663Z" fill="url(#paint3_linear_246_11202)"/>
<defs>
<linearGradient id="paint0_linear_246_11202" x1="7.03865" y1="11.3332" x2="8.85592" y2="5.35434" gradientUnits="userSpaceOnUse">
<stop stop-color="#151515"/>
<stop offset="0.589221" stop-color="#3D3D3D"/>
<stop offset="1" stop-color="#595959"/>
</linearGradient>
<linearGradient id="paint1_linear_246_11202" x1="3.87347" y1="5.66662" x2="4.29743" y2="4.65719" gradientUnits="userSpaceOnUse">
<stop stop-color="#151515"/>
<stop offset="0.589221" stop-color="#3D3D3D"/>
<stop offset="1" stop-color="#595959"/>
</linearGradient>
<linearGradient id="paint2_linear_246_11202" x1="7.87347" y1="5.66662" x2="8.29743" y2="4.65719" gradientUnits="userSpaceOnUse">
<stop stop-color="#151515"/>
<stop offset="0.589221" stop-color="#3D3D3D"/>
<stop offset="1" stop-color="#595959"/>
</linearGradient>
<linearGradient id="paint3_linear_246_11202" x1="11.8735" y1="5.66662" x2="12.2974" y2="4.65719" gradientUnits="userSpaceOnUse">
<stop stop-color="#151515"/>
<stop offset="0.589221" stop-color="#3D3D3D"/>
<stop offset="1" stop-color="#595959"/>
</linearGradient>
</defs>
</svg>
