<svg width="40" height="40" viewBox="0 0 40 40" fill="none" xmlns="http://www.w3.org/2000/svg">
<g clip-path="url(#clip0_246_11639)">
<g filter="url(#filter0_ddddd_246_11639)">
<path d="M3.33337 13.3333C3.33337 7.8104 7.81053 3.33325 13.3334 3.33325H26.6667C32.1896 3.33325 36.6667 7.8104 36.6667 13.3333V26.6666C36.6667 32.1894 32.1896 36.6666 26.6667 36.6666H13.3334C7.81053 36.6666 3.33337 32.1894 3.33337 26.6666V13.3333Z" fill="#232122"/>
</g>
<path d="M13.3333 36.6666H26.6666C27.2345 36.6666 27.7913 36.6193 28.3333 36.5283V16.6666C28.3333 12.0642 24.6023 8.33325 20 8.33325C15.3976 8.33325 11.6666 12.0642 11.6666 16.6666V36.5283C12.2086 36.6193 12.7654 36.6666 13.3333 36.6666Z" fill="#FDDF4D"/>
<ellipse cx="23.3333" cy="19.9999" rx="1.66667" ry="1.66667" fill="#DEBF2B"/>
<circle cx="23.3333" cy="28.3334" r="1.66667" fill="#DEBF2B"/>
<ellipse cx="16.6667" cy="19.9999" rx="1.66667" ry="1.66667" fill="#DEBF2B"/>
<circle cx="16.6667" cy="28.3334" r="1.66667" fill="#DEBF2B"/>
<path fill-rule="evenodd" clip-rule="evenodd" d="M28.3333 16.6666V36.5283C27.7913 36.6193 27.2345 36.6666 26.6666 36.6666H13.3333C12.7654 36.6666 12.2086 36.6193 11.6666 36.5283V16.6666C11.6666 12.0642 15.3976 8.33325 20 8.33325C24.6023 8.33325 28.3333 12.0642 28.3333 16.6666ZM26.6666 31.6666V16.6666H24.1666C23.7064 16.6666 23.3333 16.2935 23.3333 15.8333C23.3333 15.373 23.7064 14.9999 24.1666 14.9999H26.4566C25.7838 12.3858 23.5652 10.3922 20.8333 10.0515L20.8333 23.3333H22.5C22.9602 23.3333 23.3333 23.7064 23.3333 24.1666C23.3333 24.6268 22.9602 24.9999 22.5 24.9999H20.8333L20.8333 34.9999H26.6666V33.3333H24.1666C23.7064 33.3333 23.3333 32.9602 23.3333 32.4999C23.3333 32.0397 23.7064 31.6666 24.1666 31.6666H26.6666ZM19.1666 24.9999L19.1666 34.9999H13.3333V33.3333H15.8333C16.2935 33.3333 16.6666 32.9602 16.6666 32.4999C16.6666 32.0397 16.2935 31.6666 15.8333 31.6666H13.3333V16.6666H15.8333C16.2935 16.6666 16.6666 16.2935 16.6666 15.8333C16.6666 15.373 16.2935 14.9999 15.8333 14.9999H13.5433C14.2162 12.3858 16.4347 10.3922 19.1666 10.0515L19.1666 23.3333H17.5C17.0397 23.3333 16.6666 23.7064 16.6666 24.1666C16.6666 24.6268 17.0397 24.9999 17.5 24.9999H19.1666Z" fill="#DEBF2B"/>
</g>
<defs>
<filter id="filter0_ddddd_246_11639" x="-2.66663" y="2.33325" width="40.3334" height="43.3334" filterUnits="userSpaceOnUse" color-interpolation-filters="sRGB">
<feFlood flood-opacity="0" result="BackgroundImageFix"/>
<feColorMatrix in="SourceAlpha" type="matrix" values="0 0 0 0 0 0 0 0 0 0 0 0 0 0 0 0 0 0 127 0" result="hardAlpha"/>
<feOffset/>
<feColorMatrix type="matrix" values="0 0 0 0 0 0 0 0 0 0 0 0 0 0 0 0 0 0 0.1 0"/>
<feBlend mode="normal" in2="BackgroundImageFix" result="effect1_dropShadow_246_11639"/>
<feColorMatrix in="SourceAlpha" type="matrix" values="0 0 0 0 0 0 0 0 0 0 0 0 0 0 0 0 0 0 127 0" result="hardAlpha"/>
<feOffset/>
<feGaussianBlur stdDeviation="0.5"/>
<feColorMatrix type="matrix" values="0 0 0 0 0 0 0 0 0 0 0 0 0 0 0 0 0 0 0.1 0"/>
<feBlend mode="normal" in2="effect1_dropShadow_246_11639" result="effect2_dropShadow_246_11639"/>
<feColorMatrix in="SourceAlpha" type="matrix" values="0 0 0 0 0 0 0 0 0 0 0 0 0 0 0 0 0 0 127 0" result="hardAlpha"/>
<feOffset dx="-1" dy="1"/>
<feGaussianBlur stdDeviation="1"/>
<feColorMatrix type="matrix" values="0 0 0 0 0 0 0 0 0 0 0 0 0 0 0 0 0 0 0.09 0"/>
<feBlend mode="normal" in2="effect2_dropShadow_246_11639" result="effect3_dropShadow_246_11639"/>
<feColorMatrix in="SourceAlpha" type="matrix" values="0 0 0 0 0 0 0 0 0 0 0 0 0 0 0 0 0 0 127 0" result="hardAlpha"/>
<feOffset dx="-2" dy="3"/>
<feGaussianBlur stdDeviation="1"/>
<feColorMatrix type="matrix" values="0 0 0 0 0 0 0 0 0 0 0 0 0 0 0 0 0 0 0.05 0"/>
<feBlend mode="normal" in2="effect3_dropShadow_246_11639" result="effect4_dropShadow_246_11639"/>
<feColorMatrix in="SourceAlpha" type="matrix" values="0 0 0 0 0 0 0 0 0 0 0 0 0 0 0 0 0 0 127 0" result="hardAlpha"/>
<feOffset dx="-3" dy="6"/>
<feGaussianBlur stdDeviation="1.5"/>
<feColorMatrix type="matrix" values="0 0 0 0 0 0 0 0 0 0 0 0 0 0 0 0 0 0 0.01 0"/>
<feBlend mode="normal" in2="effect4_dropShadow_246_11639" result="effect5_dropShadow_246_11639"/>
<feBlend mode="normal" in="SourceGraphic" in2="effect5_dropShadow_246_11639" result="shape"/>
</filter>
<clipPath id="clip0_246_11639">
<rect width="40" height="40" fill="white"/>
</clipPath>
</defs>
</svg>
