<svg width="16" height="16" viewBox="0 0 16 16" fill="none" xmlns="http://www.w3.org/2000/svg">
<path d="M4.62672 13.7533C5.62006 14.3333 6.77339 14.6666 8.00006 14.6666C11.7534 14.6666 14.8734 11.3533 14.6534 7.60664C14.4267 3.73998 10.9134 0.759974 6.86671 1.42664C4.08005 1.88664 1.84672 4.14664 1.41339 6.93331C1.16005 8.54664 1.4934 10.0733 2.22007 11.3333L1.62672 13.54C1.49339 14.04 1.95338 14.4933 2.44671 14.3533L4.62672 13.7533Z" fill="white"/>
<path d="M11.3334 10.1133C11.3334 10.2333 11.3067 10.36 11.2467 10.48C11.1867 10.6 11.1134 10.7133 11.02 10.82C10.8534 11 10.6734 11.1333 10.4734 11.2133C10.2734 11.3 10.0533 11.34 9.82001 11.34C9.48001 11.34 9.11334 11.26 8.73334 11.0933C8.34667 10.9267 7.96669 10.7067 7.58669 10.4333C7.20002 10.1533 6.84001 9.83998 6.49335 9.49998C6.14668 9.15332 5.84004 8.78665 5.56004 8.40665C5.2867 8.02665 5.06668 7.64665 4.90668 7.26665C4.74668 6.88665 4.66669 6.51999 4.66669 6.17332C4.66669 5.94665 4.70668 5.72665 4.78668 5.52665C4.86668 5.31999 4.99336 5.13332 5.17336 4.96665C5.38669 4.75332 5.62001 4.65332 5.86668 4.65332C5.96001 4.65332 6.05337 4.67332 6.14003 4.71332C6.2267 4.75332 6.30668 4.81332 6.36668 4.89998L7.13336 5.99998C7.19336 6.08665 7.24004 6.15998 7.2667 6.23332C7.30004 6.30665 7.31333 6.37332 7.31333 6.43999C7.31333 6.51999 7.28668 6.59998 7.24001 6.67998C7.19334 6.75998 7.13336 6.83998 7.05336 6.91998L6.80003 7.18665C6.76003 7.22665 6.74668 7.26665 6.74668 7.31999C6.74668 7.34665 6.75336 7.37332 6.76003 7.39998C6.77336 7.42665 6.78002 7.44665 6.78668 7.46665C6.84668 7.57998 6.95337 7.71998 7.10004 7.89332C7.25337 8.06665 7.41336 8.24665 7.58669 8.41998C7.76669 8.59998 7.94002 8.75999 8.12002 8.91332C8.29335 9.05999 8.44003 9.15999 8.55336 9.21999C8.57336 9.22665 8.59334 9.23999 8.61334 9.24665C8.64001 9.25999 8.66668 9.25998 8.70001 9.25998C8.76001 9.25998 8.80003 9.23999 8.84003 9.19999L9.09336 8.94665C9.18003 8.85998 9.26002 8.79998 9.33335 8.75998C9.41335 8.71332 9.48668 8.68665 9.57334 8.68665C9.64001 8.68665 9.70668 8.69998 9.78001 8.73332C9.85334 8.76665 9.93337 8.80665 10.0134 8.86665L11.12 9.65332C11.2067 9.71332 11.2667 9.78665 11.3067 9.86665C11.3134 9.93999 11.3334 10.02 11.3334 10.1133Z" fill="url(#paint0_linear_246_11151)"/>
<defs>
<linearGradient id="paint0_linear_246_11151" x1="7.04986" y1="13.3556" x2="16.2837" y2="10.611" gradientUnits="userSpaceOnUse">
<stop stop-color="#E82320"/>
<stop offset="1" stop-color="#FA504D"/>
</linearGradient>
</defs>
</svg>
